<?xml version="1.0" encoding="utf-8"?>
<!-- Generator: Adobe Illustrator 23.1.1, SVG Export Plug-In . SVG Version: 6.00 Build 0)  -->
<svg version="1.1" id="Calque_1" xmlns="http://www.w3.org/2000/svg" xmlns:xlink="http://www.w3.org/1999/xlink" x="0px" y="0px"
	 viewBox="0 0 512 512" style="enable-background:new 0 0 512 512;" xml:space="preserve">
<style type="text/css">
	.st0{stroke:#FFFFFF;stroke-width:9.4514;stroke-miterlimit:10;}
</style>
<path class="st0" d="M496.5,229.3c0.9,8.7-3.8,17-11.5,21.1l-48.8,26.1c-0.9,7.9-2.3,15.8-4.3,23.7c-2,7.9-4.5,15.5-7.4,22.9
	l30.6,46.1c4.9,7.3,5.1,16.8,0.2,24c-6.8,9.9-14.3,19.1-22.4,27.8l-6.2,6.3c-8.6,8.6-17.8,16.4-27.4,23.5c-7.1,5.2-16.6,5.2-24,0.6
	l-47-29.1c-14.7,6.4-30.2,10.8-46.2,13.1L257.5,485c-3.9,7.9-12,12.9-20.8,12.1c-13.2-1.1-26.5-3.2-39.8-6.6
	c-13.3-3.3-26-7.7-38.1-13c-8.1-3.5-12.8-11.7-12.6-20.5l1.7-55.2c-13-9.6-24.6-20.9-34.5-33.4l-55.1,3.5c-8.7,0.5-17.1-4-20.9-11.9
	c-5.2-10.8-9.6-22.1-13.1-33.7l-2.4-8.5c-3.1-11.5-5.3-23.2-6.6-35.1c-0.9-8.7,3.8-17,11.5-21.1l48.8-26.1c0.9-8,2.3-15.9,4.3-23.8
	c2-7.9,4.5-15.5,7.4-22.9l-30.6-46.1c-4.9-7.3-5.1-16.8-0.2-24C63.4,108.9,70.9,99.6,79,91l6.2-6.3c8.6-8.6,17.8-16.4,27.4-23.5
	c7.1-5.2,16.6-5.2,24-0.6l47,29.1c14.7-6.4,30.2-10.8,46.2-13.1L254.4,27c3.9-7.9,12-12.9,20.8-12.1c13.2,1,26.5,3.2,39.8,6.5
	c13.3,3.3,26,7.7,38.1,13c8.1,3.5,12.8,11.7,12.6,20.5l-1.7,55.2c13,9.6,24.6,20.9,34.5,33.4l55.1-3.4c8.7-0.5,17.1,4,20.9,11.9
	c5.2,10.8,9.6,22.1,13.1,33.7l2.4,8.5c3.1,11.5,5.3,23.2,6.6,35.1L496.5,229.3z M237.5,329.3c40.5,10.2,81.6-14.4,91.8-54.9
	c10.2-40.5-14.4-81.6-54.9-91.8c-40.5-10.2-81.6,14.4-91.8,54.9S197.1,319.2,237.5,329.3z"/>
</svg>
