<?xml version="1.0" encoding="utf-8"?>
<!-- Generator: Adobe Illustrator 23.1.1, SVG Export Plug-In . SVG Version: 6.00 Build 0)  -->
<svg version="1.1" id="Calque_1" xmlns="http://www.w3.org/2000/svg" xmlns:xlink="http://www.w3.org/1999/xlink" x="0px" y="0px"
	 viewBox="0 0 512 512" style="enable-background:new 0 0 512 512;" xml:space="preserve">
<style type="text/css">
	.st0{fill:#1F77B3;stroke:#FFFFFF;stroke-width:12;stroke-miterlimit:10;}
</style>
<path class="st0" d="M479.4,348.8c-3.4,8.1-11.5,13-20.3,12.9l-55.3-0.7c-4.6,6.4-9.7,12.7-15.2,18.7s-11.4,11.4-17.5,16.5l4.5,55.1
	c0.8,8.7-3.6,17.2-11.4,21.1c-10.7,5.4-21.7,9.9-33,13.5l-8.5,2.6c-11.7,3.4-23.5,5.8-35.4,7.3c-8.7,1.2-17-3.5-21.3-11.1
	l-27.1-48.1c-15.9-1.5-31.7-5.1-46.8-10.8l-45.4,31.4c-7.2,5-16.7,5.5-24.1,0.6c-11-7.3-21.6-15.6-31.6-25
	c-10-9.3-19.1-19.3-27.1-29.8c-5.4-7-5.6-16.5-1.1-24l28.2-47.5c-6.7-14.7-11.4-30.2-14-45.9L26.9,262c-7.9-3.7-13.1-11.8-12.6-20.5
	c0.7-12,2.3-24,4.8-35.8l2-8.6c2.9-11.5,6.6-22.8,11.2-33.9c3.4-8.1,11.5-13,20.3-12.9L108,151c4.7-6.5,9.7-12.8,15.3-18.7
	c5.5-5.9,11.4-11.4,17.5-16.5l-4.5-55.1c-0.8-8.7,3.6-17.2,11.4-21.1c10.7-5.4,21.7-9.9,33-13.5l8.5-2.6c11.7-3.4,23.5-5.8,35.4-7.3
	c8.7-1.2,17,3.5,21.3,11.1L273,75.3c15.9,1.5,31.7,5.1,46.8,10.8l45.4-31.4c7.2-5,16.7-5.5,24.1-0.6c11.1,7.2,21.7,15.6,31.7,24.9
	c10,9.3,19.1,19.3,27.1,29.8c5.4,7,5.6,16.5,1.1,24L421,180.4c6.7,14.7,11.4,30.2,14,45.9L485,250c7.9,3.7,13.1,11.8,12.6,20.5
	c-0.7,12-2.3,24-4.8,35.8l-2,8.6c-2.9,11.5-6.6,22.8-11.2,33.9L479.4,348.8z M204.4,311.3c30.5,28.5,78.4,26.8,106.9-3.7
	c28.5-30.5,26.8-78.4-3.7-106.9s-78.4-26.8-106.9,3.7S173.8,282.8,204.4,311.3z"/>
<image style="overflow:visible;" width="1600" height="1200" xlink:href="../frontend/src/assets/palette.jpeg"  transform="matrix(1 0 0 1 -544.0731 -1300.5642)">
</image>
</svg>
